# xmcd CD database file
#
# Track frame offsets:
#	150
#	25734
#	48672
#	72022
#	90875
#	112279
#	128839
#	142756
#	161081
#	182466
#	208457
#	233044
#	255181
#
# Disc length: 3660 seconds
#
# Revision: 0
# Processed by: cddbd v1.5.2PL0 Copyright (c) Steve Scherf et al.
# Submitted via: CDex 1.51
#
DISCID=aa0e4a0d
DTITLE=Nelson Boschman Trio - Keeping Time vol. 02
DYEAR=2007
DGENRE=Jazz
TTITLE0=Deep River
TTITLE1=O Come O Come Emmanuel
TTITLE2=Angels We Have Heard On High
TTITLE3=So They Went With Haste
TTITLE4=Star In The East
TTITLE5=Sometimes I Feel Like A Motherless Child
TTITLE6=Returning Home
TTITLE7=Were You There?
TTITLE8=Go Down Moses
TTITLE9=The Solid Rock
TTITLE10=Light Beyond All Light (Chaterine's Prayer)
TTITLE11=I Want Jesus To Walk With Me
TTITLE12=Metamorphosis
EXTD=YEAR: 2007
EXTT0=
EXTT1=
EXTT2=
EXTT3=
EXTT4=
EXTT5=
EXTT6=
EXTT7=
EXTT8=
EXTT9=
EXTT10=
EXTT11=
EXTT12=
PLAYORDER=
